<svg xmlns="http://www.w3.org/2000/svg" viewBox="0 0 256 256"><defs><linearGradient id="b" x1="0" y1="0" x2="1" y2="1"><stop stop-color="#42a5ff"/><stop offset="1" stop-color="#0b5cff"/></linearGradient></defs><circle cx="128" cy="128" r="116" fill="#0b0c10" stroke="#252932" stroke-width="8"/><path d="M42 86c34-24 66-24 100 0 25 18 47 17 72 2" fill="none" stroke="url(#b)" stroke-width="18" stroke-linecap="round"/><path d="M36 128c38-25 74-25 108 0 27 20 50 19 76 1" fill="none" stroke="url(#b)" stroke-width="18" stroke-linecap="round"/><path d="M42 171c33-23 65-23 99 0 25 17 47 16 72 1" fill="none" stroke="url(#b)" stroke-width="18" stroke-linecap="round"/><path d="M173 68c-31 12-49 38-46 66 2 24 18 42 39 53-7-20-2-38 12-52 14-15 21-35 15-55-3-7-8-10-20-12z" fill="#0b0c10" opacity=".88"/></svg>
